Wavefont-wmin,rmax,amin.ufo
<glyph name="_2" format="2">
	<unicode hex="0102"/>
	<unicode hex="0062"/>
	<advance width="5"/>
	<outline>
		<component base="cap"/>
		<component base="cap" yOffset="15"/>
		<contour>
			<point x="0" y="3" type="line"/>
			<point x="0" y="18" type="line"/>
			<point x="5" y="18" type="line"/>
			<point x="5" y="3" type="line"/>
		</contour>
	</outline>
</glyph>
<glyph name="_3" format="2">
	<unicode hex="0103"/>
	<advance width="4"/>
	<outline>
		<component base="cap"/>
		<component base="cap" yOffset="26"/>
		<contour>
			<point x="0" y="2" type="line"/>
			<point x="0" y="28" type="line"/>
			<point x="4" y="28" type="line"/>
			<point x="4" y="2" type="line"/>
		</contour>
	</outline>
</glyph>
<glyph name="_4" format="2">
	<unicode hex="0104"/>
	<unicode hex="0063"/>
	<advance width="4"/>
	<outline>
		<component base="cap"/>
		<component base="cap" yOffset="36"/>
		<contour>
			<point x="0" y="2" type="line"/>
			<point x="0" y="38" type="line"/>
			<point x="4" y="38" type="line"/>
			<point x="4" y="2" type="line"/>
		</contour>
	</outline>
</glyph>
<glyph name="_5" format="2">
	<unicode hex="0105"/>
	<advance width="5"/>
	<outline>
		<component base="cap"/>
		<component base="cap" yOffset="45"/>
		<contour>
			<point x="0" y="3" type="line"/>
			<point x="0" y="48" type="line"/>
			<point x="5" y="48" type="line"/>
			<point x="5" y="3" type="line"/>
		</contour>
	</outline>
</glyph>
<glyph name="_6" format="2">
	<unicode hex="0106"/>
	<unicode hex="0064"/>
	<advance width="4"/>
	<outline>
		<component base="cap"/>
		<component base="cap" yOffset="56"/>
		<contour>
			<point x="0" y="2" type="line"/>
			<point x="0" y="58" type="line"/>
			<point x="4" y="58" type="line"/>
			<point x="4" y="2" type="line"/>
		</contour>
	</outline>
</glyph>
<glyph name="_7" format="2">
	<unicode hex="0107"/>
	<advance width="5"/>
	<outline>
		<component base="cap"/>
		<component base="cap" yOffset="65"/>
		<contour>
			<point x="0" y="3" type="line"/>
			<point x="0" y="68" type="line"/>
			<point x="5" y="68" type="line"/>
			<point x="5" y="3" type="line"/>
		</contour>
	</outline>
</glyph>
<glyph name="_8" format="2">
	<unicode hex="0108"/>
	<unicode hex="0065"/>
	<advance width="4"/>
	<outline>
		<component base="cap"/>
		<component base="cap" yOffset="76"/>
		<contour>
			<point x="0" y="2" type="line"/>
			<point x="0" y="78" type="line"/>
			<point x="4" y="78" type="line"/>
			<point x="4" y="2" type="line"/>
		</contour>
	</outline>
</glyph>
<glyph name="_9" format="2">
	<unicode hex="0109"/>
	<advance width="5"/>
	<outline>
		<component base="cap"/>
		<component base="cap" yOffset="85"/>
		<contour>
			<point x="0" y="3" type="line"/>
			<point x="0" y="88" type="line"/>
			<point x="5" y="88" type="line"/>
			<point x="5" y="3" type="line"/>
		</contour>
	</outline>
</glyph>
<glyph name="_10" format="2">
	<unicode hex="010A"/>
	<unicode hex="0031"/>
	<unicode hex="0066"/>
	<advance width="4"/>
	<outline>
		<component base="cap"/>
		<component base="cap" yOffset="96"/>
		<contour>
			<point x="0" y="2" type="line"/>
			<point x="0" y="98" type="line"/>
			<point x="4" y="98" type="line"/>
			<point x="4" y="2" type="line"/>
		</contour>
	</outline>
</glyph>
<glyph name="_11" format="2">
	<unicode hex="010B"/>
	<advance width="5"/>
	<outline>
		<component base="cap"/>
		<component base="cap" yOffset="105"/>
		<contour>
			<point x="0" y="3" type="line"/>
			<point x="0" y="108" type="line"/>
			<point x="5" y="108" type="line"/>
			<point x="5" y="3" type="line"/>
		</contour>
	</outline>
</glyph>
<glyph name="_12" format="2">
	<unicode hex="010C"/>
	<unicode hex="0067"/>
	<advance width="5"/>
	<outline>
		<component base="cap"/>
		<component base="cap" yOffset="115"/>
		<contour>
			<point x="0" y="3" type="line"/>
			<point x="0" y="118" type="line"/>
			<point x="5" y="118" type="line"/>
			<point x="5" y="3" type="line"/>
		</contour>
	</outline>
</glyph>
<glyph name="_13" format="2">
	<unicode hex="010D"/>
	<advance width="1"/>
	<outline>
		<component base="cap"/>
		<component base="cap" yOffset="129"/>
		<contour>
			<point x="0" y="1" type="line"/>
			<point x="0" y="130" type="line"/>
			<point x="1" y="130" type="line"/>
			<point x="1" y="1" type="line"/>
		</contour>
	</outline>
</glyph>
<glyph name="_14" format="2">
	<unicode hex="010E"/>
	<unicode hex="2582"/>
	<unicode hex="0068"/>
	<advance width="4"/>
	<outline>
		<component base="cap"/>
		<component base="cap" yOffset="136"/>
		<contour>
			<point x="0" y="2" type="line"/>
			<point x="0" y="138" type="line"/>
			<point x="4" y="138" type="line"/>
			<point x="4" y="2" type="line"/>
		</contour>
	</outline>
</glyph>
<glyph name="_15" format="2">
	<unicode hex="010F"/>
	<advance width="4"/>
	<outline>
		<component base="cap"/>
		<component base="cap" yOffset="146"/>
		<contour>
			<point x="0" y="2" type="line"/>
			<point x="0" y="148" type="line"/>
			<point x="4" y="148" type="line"/>
			<point x="4" y="2" type="line"/>
		</contour>
	</outline>
</glyph>
<glyph name="_16" format="2">
	<unicode hex="0110"/>
	<unicode hex="0069"/>
	<advance width="5"/>
	<outline>
		<component base="cap"/>
		<component base="cap" yOffset="155"/>
		<contour>
			<point x="0" y="3" type="line"/>
			<point x="0" y="158" type="line"/>
			<point x="5" y="158" type="line"/>
			<point x="5" y="3" type="line"/>
		</contour>
	</outline>
</glyph>
<glyph name="_17" format="2">
	<unicode hex="0111"/>
	<advance width="5"/>
	<outline>
		<component base="cap"/>
		<component base="cap" yOffset="165"/>
		<contour>
			<point x="0" y="3" type="line"/>
			<point x="0" y="168" type="line"/>
			<point x="5" y="168" type="line"/>
			<point x="5" y="3" type="line"/>
		</contour>
	</outline>
</glyph>
<glyph name="_18" format="2">
	<unicode hex="0112"/>
	<unicode hex="006A"/>
	<advance width="5"/>
	<outline>
		<component base="cap"/>
		<component base="cap" yOffset="175"/>
		<contour>
			<point x="0" y="3" type="line"/>
			<point x="0" y="178" type="line"/>
			<point x="5" y="178" type="line"/>
			<point x="5" y="3" type="line"/>
		</contour>
	</outline>
</glyph>
<glyph name="_19" format="2">
	<unicode hex="0113"/>
	<advance width="5"/>
	<outline>
		<component base="cap"/>
		<component base="cap" yOffset="185"/>
		<contour>
			<point x="0" y="3" type="line"/>
			<point x="0" y="188" type="line"/>
			<point x="5" y="188" type="line"/>
			<point x="5" y="3" type="line"/>
		</contour>
	</outline>
</glyph>
<glyph name="_20" format="2">
	<unicode hex="0114"/>
	<unicode hex="0032"/>
	<unicode hex="006B"/>
	<advance width="4"/>
	<outline>
		<component base="cap"/>
		<component base="cap" yOffset="196"/>
		<contour>
			<point x="0" y="2" type="line"/>
			<point x="0" y="198" type="line"/>
			<point x="4" y="198" type="line"/>
			<point x="4" y="2" type="line"/>
		</contour>
	</outline>
</glyph>
<glyph name="_21" format="2">
	<unicode hex="0115"/>
	<advance width="5"/>
	<outline>
		<component base="cap"/>
		<component base="cap" yOffset="205"/>
		<contour>
			<point x="0" y="3" type="line"/>
			<point x="0" y="208" type="line"/>
			<point x="5" y="208" type="line"/>
			<point x="5" y="3" type="line"/>
		</contour>
	</outline>
</glyph>
<glyph name="_22" format="2">
	<unicode hex="0116"/>
	<unicode hex="006C"/>
	<advance width="5"/>
	<outline>
		<component base="cap"/>
		<component base="cap" yOffset="215"/>
		<contour>
			<point x="0" y="3" type="line"/>
			<point x="0" y="218" type="line"/>
			<point x="5" y="218" type="line"/>
			<point x="5" y="3" type="line"/>
		</contour>
	</outline>
</glyph>
<glyph name="_23" format="2">
	<unicode hex="0117"/>
	<advance width="4"/>
	<outline>
		<component base="cap"/>
		<component base="cap" yOffset="226"/>
		<contour>
			<point x="0" y="2" type="line"/>
			<point x="0" y="228" type="line"/>
			<point x="4" y="228" type="line"/>
			<point x="4" y="2" type="line"/>
		</contour>
	</outline>
</glyph>
<glyph name="_24" format="2">
	<unicode hex="0118"/>
	<unicode hex="006D"/>
	<advance width="5"/>
	<outline>
		<component base="cap"/>
		<component base="cap" yOffset="235"/>
		<contour>
			<point x="0" y="3" type="line"/>
			<point x="0" y="238" type="line"/>
			<point x="5" y="238" type="line"/>
			<point x="5" y="3" type="line"/>
		</contour>
	</outline>
</glyph>
<glyph name="_25" format="2">
	<unicode hex="0119"/>
	<advance width="5"/>
	<outline>
		<component base="cap"/>
		<component base="cap" yOffset="245"/>
		<contour>
			<point x="0" y="3" type="line"/>
			<point x="0" y="248" type="line"/>
			<point x="5" y="248" type="line"/>
			<point x="5" y="3" type="line"/>
		</contour>
	</outline>
</glyph>
<glyph name="_26" format="2">
	<unicode hex="011A"/>
	<unicode hex="006E"/>
	<advance width="4"/>
	<outline>
		<component base="cap"/>
		<component base="cap" yOffset="256"/>
		<contour>
			<point x="0" y="2" type="line"/>
			<point x="0" y="258" type="line"/>
			<point x="4" y="258" type="line"/>
			<point x="4" y="2" type="line"/>
		</contour>
	</outline>
</glyph>
<glyph name="_27" format="2">
	<unicode hex="011B"/>
	<advance width="4"/>
	<outline>
		<component base="cap"/>
		<component base="cap" yOffset="266"/>
		<contour>
			<point x="0" y="2" type="line"/>
			<point x="0" y="268" type="line"/>
			<point x="4" y="268" type="line"/>
			<point x="4" y="2" type="line"/>
		</contour>
	</outline>
</glyph>
<glyph name="_28" format="2">
	<unicode hex="011C"/>
	<unicode hex="2583"/>
	<unicode hex="006F"/>
	<advance width="1"/>
	<outline>
		<component base="cap"/>
		<component base="cap" yOffset="279"/>
		<contour>
			<point x="0" y="1" type="line"/>
			<point x="0" y="280" type="line"/>
			<point x="1" y="280" type="line"/>
			<point x="1" y="1" type="line"/>
		</contour>
	</outline>
</glyph>
<glyph name="_29" format="2">
	<unicode hex="011D"/>
	<advance width="4"/>
	<outline>
		<component base="cap"/>
		<component base="cap" yOffset="286"/>
		<contour>
			<point x="0" y="2" type="line"/>
			<point x="0" y="288" type="line"/>
			<point x="4" y="288" type="line"/>
			<point x="4" y="2" type="line"/>
		</contour>
	</outline>
</glyph>
<glyph name="_30" format="2">
	<unicode hex="011E"/>
	<unicode hex="0033"/>
	<unicode hex="0070"/>
	<advance width="4"/>
	<outline>
		<component base="cap"/>
		<component base="cap" yOffset="296"/>
		<contour>
			<point x="0" y="2" type="line"/>
			<point x="0" y="298" type="line"/>
			<point x="4" y="298" type="line"/>
			<point x="4" y="2" type="line"/>
		</contour>
	</outline>
</glyph>
<glyph name="_31" format="2">
	<unicode hex="011F"/>
	<advance width="5"/>
	<outline>
		<component base="cap"/>
		<component base="cap" yOffset="305"/>
		<contour>
			<point x="0" y="3" type="line"/>
			<point x="0" y="308" type="line"/>
			<point x="5" y="308" type="line"/>
			<point x="5" y="3" type="line"/>
		</contour>
	</outline>
</glyph>
<glyph name="_32" format="2">
	<unicode hex="0120"/>
	<unicode hex="0071"/>
	<advance width="5"/>
	<outline>
		<component base="cap"/>
		<component base="cap" yOffset="315"/>
		<contour>
			<point x="0" y="3" type="line"/>
			<point x="0" y="318" type="line"/>
			<point x="5" y="318" type="line"/>
			<point x="5" y="3" type="line"/>
		</contour>
	</outline>
</glyph>
<glyph name="_33" format="2">
	<unicode hex="0121"/>
	<advance width="1"/>
	<outline>
		<component base="cap"/>
		<component base="cap" yOffset="329"/>
		<contour>
			<point x="0" y="1" type="line"/>
			<point x="0" y="330" type="line"/>
			<point x="1" y="330" type="line"/>
			<point x="1" y="1" type="line"/>
		</contour>
	</outline>
</glyph>
<glyph name="_34" format="2">
	<unicode hex="0122"/>
	<unicode hex="0072"/>
	<advance width="4"/>
	<outline>
		<component base="cap"/>
		<component base="cap" yOffset="336"/>
		<contour>
			<point x="0" y="2" type="line"/>
			<point x="0" y="338" type="line"/>
			<point x="4" y="338" type="line"/>
			<point x="4" y="2" type="line"/>
		</contour>
	</outline>
</glyph>
<glyph name="_35" format="2">
	<unicode hex="0123"/>
	<advance width="1"/>
	<outline>
		<component base="cap"/>
		<component base="cap" yOffset="349"/>
		<contour>
			<point x="0" y="1" type="line"/>
			<point x="0" y="350" type="line"/>
			<point x="1" y="350" type="line"/>
			<point x="1" y="1" type="line"/>
		</contour>
	</outline>
</glyph>
<glyph name="_36" format="2">
	<unicode hex="0124"/>
	<unicode hex="0073"/>
	<advance width="5"/>
	<outline>
		<component base="cap"/>
		<component base="cap" yOffset="355"/>
		<contour>
			<point x="0" y="3" type="line"/>
			<point x="0" y="358" type="line"/>
			<point x="5" y="358" type="line"/>
			<point x="5" y="3" type="line"/>
		</contour>
	</outline>
</glyph>
<glyph name="_38" format="2">
	<unicode hex="0126"/>
	<unicode hex="0074"/>
	<advance width="5"/>
	<outline>
		<component base="cap"/>
		<component base="cap" yOffset="375"/>
		<contour>
			<point x="0" y="3" type="line"/>
			<point x="0" y="378" type="line"/>
			<point x="5" y="378" type="line"/>
			<point x="5" y="3" type="line"/>
		</contour>
	</outline>
</glyph>
<glyph name="_39" format="2">
	<unicode hex="0127"/>
	<advance width="1"/>
	<outline>
		<component base="cap"/>
		<component base="cap" yOffset="389"/>
		<contour>
			<point x="0" y="1" type="line"/>
			<point x="0" y="390" type="line"/>
			<point x="1" y="390" type="line"/>
			<point x="1" y="1" type="line"/>
		</contour>
	</outline>
</glyph>
<glyph name="_40" format="2">
	<unicode hex="0128"/>
	<unicode hex="0034"/>
	<unicode hex="0075"/>
	<advance width="4"/>
	<outline>
		<component base="cap"/>
		<component base="cap" yOffset="396"/>
		<contour>
			<point x="0" y="2" type="line"/>
			<point x="0" y="398" type="line"/>
			<point x="4" y="398" type="line"/>
			<point x="4" y="2" type="line"/>
		</contour>
	</outline>
</glyph>
<glyph name="_41" format="2">
	<unicode hex="0129"/>
	<advance width="4"/>
	<outline>
		<component base="cap"/>
		<component base="cap" yOffset="406"/>
		<contour>
			<point x="0" y="2" type="line"/>
			<point x="0" y="408" type="line"/>
			<point x="4" y="408" type="line"/>
			<point x="4" y="2" type="line"/>
		</contour>
	</outline>
</glyph>
<glyph name="_42" format="2">
	<unicode hex="012A"/>
	<unicode hex="2584"/>
	<unicode hex="0076"/>
	<advance width="5"/>
	<outline>
		<component base="cap"/>
		<component base="cap" yOffset="415"/>
		<contour>
			<point x="0" y="3" type="line"/>
			<point x="0" y="418" type="line"/>
			<point x="5" y="418" type="line"/>
			<point x="5" y="3" type="line"/>
		</contour>
	</outline>
</glyph>
<glyph name="_43" format="2">
	<unicode hex="012B"/>
	<advance width="5"/>
	<outline>
		<component base="cap"/>
		<component base="cap" yOffset="425"/>
		<contour>
			<point x="0" y="3" type="line"/>
			<point x="0" y="428" type="line"/>
			<point x="5" y="428" type="line"/>
			<point x="5" y="3" type="line"/>
		</contour>
	</outline>
</glyph>
<glyph name="_44" format="2">
	<unicode hex="012C"/>
	<unicode hex="0077"/>
	<advance width="4"/>
	<outline>
		<component base="cap"/>
		<component base="cap" yOffset="436"/>
		<contour>
			<point x="0" y="2" type="line"/>
			<point x="0" y="438" type="line"/>
			<point x="4" y="438" type="line"/>
			<point x="4" y="2" type="line"/>
		</contour>
	</outline>
</glyph>
<glyph name="_45" format="2">
	<unicode hex="012D"/>
	<advance width="5"/>
	<outline>
		<component base="cap"/>
		<component base="cap" yOffset="445"/>
		<contour>
			<point x="0" y="3" type="line"/>
			<point x="0" y="448" type="line"/>
			<point x="5" y="448" type="line"/>
			<point x="5" y="3" type="line"/>
		</contour>
	</outline>
</glyph>
<glyph name="_46" format="2">
	<unicode hex="012E"/>
	<unicode hex="0078"/>
	<advance width="4"/>
	<outline>
		<component base="cap"/>
		<component base="cap" yOffset="456"/>
		<contour>
			<point x="0" y="2" type="line"/>
			<point x="0" y="458" type="line"/>
			<point x="4" y="458" type="line"/>
			<point x="4" y="2" type="line"/>
		</contour>
	</outline>
</glyph>
<glyph name="_48" format="2">
	<unicode hex="0130"/>
	<unicode hex="0079"/>
	<advance width="4"/>
	<outline>
		<component base="cap"/>
		<component base="cap" yOffset="476"/>
		<contour>
			<point x="0" y="2" type="line"/>
			<point x="0" y="478" type="line"/>
			<point x="4" y="478" type="line"/>
			<point x="4" y="2" type="line"/>
		</contour>
	</outline>
</glyph>
<glyph name="_49" format="2">
	<unicode hex="0131"/>
	<advance width="4"/>
	<outline>
		<component base="cap"/>
		<component base="cap" yOffset="486"/>
		<contour>
			<point x="0" y="2" type="line"/>
			<point x="0" y="488" type="line"/>
			<point x="4" y="488" type="line"/>
			<point x="4" y="2" type="line"/>
		</contour>
	</outline>
</glyph>
<glyph name="_50" format="2">
	<unicode hex="0132"/>
	<unicode hex="0035"/>
	<unicode hex="007A"/>
	<advance width="5"/>
	<outline>
		<component base="cap"/>
		<component base="cap" yOffset="495"/>
		<contour>
			<point x="0" y="3" type="line"/>
			<point x="0" y="498" type="line"/>
			<point x="5" y="498" type="line"/>
			<point x="5" y="3" type="line"/>
		</contour>
	</outline>
</glyph>
<glyph name="_51" format="2">
	<unicode hex="0133"/>
	<advance width="5"/>
	<outline>
		<component base="cap"/>
		<component base="cap" yOffset="505"/>
		<contour>
			<point x="0" y="3" type="line"/>
			<point x="0" y="508" type="line"/>
			<point x="5" y="508" type="line"/>
			<point x="5" y="3" type="line"/>
		</contour>
	</outline>
</glyph>
<glyph name="_52" format="2">
	<unicode hex="0134"/>
	<unicode hex="0041"/>
	<advance width="5"/>
	<outline>
		<component base="cap"/>
		<component base="cap" yOffset="515"/>
		<contour>
			<point x="0" y="3" type="line"/>
			<point x="0" y="518" type="line"/>
			<point x="5" y="518" type="line"/>
			<point x="5" y="3" type="line"/>
		</contour>
	</outline>
</glyph>
<glyph name="_53" format="2">
	<unicode hex="0135"/>
	<advance width="5"/>
	<outline>
		<component base="cap"/>
		<component base="cap" yOffset="525"/>
		<contour>
			<point x="0" y="3" type="line"/>
			<point x="0" y="528" type="line"/>
			<point x="5" y="528" type="line"/>
			<point x="5" y="3" type="line"/>
		</contour>
	</outline>
</glyph>
<glyph name="_54" format="2">
	<unicode hex="0136"/>
	<unicode hex="0042"/>
	<advance width="4"/>
	<outline>
		<component base="cap"/>
		<component base="cap" yOffset="536"/>
		<contour>
			<point x="0" y="2" type="line"/>
			<point x="0" y="538" type="line"/>
			<point x="4" y="538" type="line"/>
			<point x="4" y="2" type="line"/>
		</contour>
	</outline>
</glyph>
<glyph name="_55" format="2">
	<unicode hex="0137"/>
	<advance width="4"/>
	<outline>
		<component base="cap"/>
		<component base="cap" yOffset="546"/>
		<contour>
			<point x="0" y="2" type="line"/>
			<point x="0" y="548" type="line"/>
			<point x="4" y="548" type="line"/>
			<point x="4" y="2" type="line"/>
		</contour>
	</outline>
</glyph>
<glyph name="_56" format="2">
	<unicode hex="0138"/>
	<unicode hex="2585"/>
	<unicode hex="0043"/>
	<advance width="5"/>
	<outline>
		<component base="cap"/>
		<component base="cap" yOffset="555"/>
		<contour>
			<point x="0" y="3" type="line"/>
			<point x="0" y="558" type="line"/>
			<point x="5" y="558" type="line"/>
			<point x="5" y="3" type="line"/>
		</contour>
	</outline>
</glyph>
<glyph name="_57" format="2">
	<unicode hex="0139"/>
	<advance width="4"/>
	<outline>
		<component base="cap"/>
		<component base="cap" yOffset="566"/>
		<contour>
			<point x="0" y="2" type="line"/>
			<point x="0" y="568" type="line"/>
			<point x="4" y="568" type="line"/>
			<point x="4" y="2" type="line"/>
		</contour>
	</outline>
</glyph>
<glyph name="_58" format="2">
	<unicode hex="013A"/>
	<unicode hex="0044"/>
	<advance width="4"/>
	<outline>
		<component base="cap"/>
		<component base="cap" yOffset="576"/>
		<contour>
			<point x="0" y="2" type="line"/>
			<point x="0" y="578" type="line"/>
			<point x="4" y="578" type="line"/>
			<point x="4" y="2" type="line"/>
		</contour>
	</outline>
</glyph>
<glyph name="_59" format="2">
	<unicode hex="013B"/>
	<advance width="4"/>
	<outline>
		<component base="cap"/>
		<component base="cap" yOffset="586"/>
		<contour>
			<point x="0" y="2" type="line"/>
			<point x="0" y="588" type="line"/>
			<point x="4" y="588" type="line"/>
			<point x="4" y="2" type="line"/>
		</contour>
	</outline>
</glyph>
<glyph name="_60" format="2">
	<unicode hex="013C"/>
	<unicode hex="0036"/>
	<unicode hex="0045"/>
	<advance width="5"/>
	<outline>
		<component base="cap"/>
		<component base="cap" yOffset="595"/>
		<contour>
			<point x="0" y="3" type="line"/>
			<point x="0" y="598" type="line"/>
			<point x="5" y="598" type="line"/>
			<point x="5" y="3" type="line"/>
		</contour>
	</outline>
</glyph>
<glyph name="_61" format="2">
	<unicode hex="013D"/>
	<advance width="5"/>
	<outline>
		<component base="cap"/>
		<component base="cap" yOffset="605"/>
		<contour>
			<point x="0" y="3" type="line"/>
			<point x="0" y="608" type="line"/>
			<point x="5" y="608" type="line"/>
			<point x="5" y="3" type="line"/>
		</contour>
	</outline>
</glyph>
<glyph name="_62" format="2">
	<unicode hex="013E"/>
	<unicode hex="0046"/>
	<advance width="4"/>
	<outline>
		<component base="cap"/>
		<component base="cap" yOffset="616"/>
		<contour>
			<point x="0" y="2" type="line"/>
			<point x="0" y="618" type="line"/>
			<point x="4" y="618" type="line"/>
			<point x="4" y="2" type="line"/>
		</contour>
	</outline>
</glyph>
<glyph name="_63" format="2">
	<unicode hex="013F"/>
	<advance width="5"/>
	<outline>
		<component base="cap"/>
		<component base="cap" yOffset="625"/>
		<contour>
			<point x="0" y="3" type="line"/>
			<point x="0" y="628" type="line"/>
			<point x="5" y="628" type="line"/>
			<point x="5" y="3" type="line"/>
		</contour>
	</outline>
</glyph>
<glyph name="_64" format="2">
	<unicode hex="0140"/>
	<unicode hex="0047"/>
	<advance width="4"/>
	<outline>
		<component base="cap"/>
		<component base="cap" yOffset="636"/>
		<contour>
			<point x="0" y="2" type="line"/>
			<point x="0" y="638" type="line"/>
			<point x="4" y="638" type="line"/>
			<point x="4" y="2" type="line"/>
		</contour>
	</outline>
</glyph>
<glyph name="_65" format="2">
	<unicode hex="0141"/>
	<advance width="4"/>
	<outline>
		<component base="cap"/>
		<component base="cap" yOffset="646"/>
		<contour>
			<point x="0" y="2" type="line"/>
			<point x="0" y="648" type="line"/>
			<point x="4" y="648" type="line"/>
			<point x="4" y="2" type="line"/>
		</contour>
	</outline>
</glyph>
<glyph name="_68" format="2">
	<unicode hex="0144"/>
	<unicode hex="0049"/>
	<advance width="4"/>
	<outline>
		<component base="cap"/>
		<component base="cap" yOffset="676"/>
		<contour>
			<point x="0" y="2" type="line"/>
			<point x="0" y="678" type="line"/>
			<point x="4" y="678" type="line"/>
			<point x="4" y="2" type="line"/>
		</contour>
	</outline>
</glyph>
<glyph name="_69" format="2">
	<unicode hex="0145"/>
	<advance width="1"/>
	<outline>
		<component base="cap"/>
		<component base="cap" yOffset="689"/>
		<contour>
			<point x="0" y="1" type="line"/>
			<point x="0" y="690" type="line"/>
			<point x="1" y="690" type="line"/>
			<point x="1" y="1" type="line"/>
		</contour>
	</outline>
</glyph>
<glyph name="_70" format="2">
	<unicode hex="0146"/>
	<unicode hex="0037"/>
	<unicode hex="004A"/>
	<advance width="5"/>
	<outline>
		<component base="cap"/>
		<component base="cap" yOffset="695"/>
		<contour>
			<point x="0" y="3" type="line"/>
			<point x="0" y="698" type="line"/>
			<point x="5" y="698" type="line"/>
			<point x="5" y="3" type="line"/>
		</contour>
	</outline>
</glyph>
<glyph name="_72" format="2">
	<unicode hex="0148"/>
	<unicode hex="2586"/>
	<unicode hex="004B"/>
	<advance width="5"/>
	<outline>
		<component base="cap"/>
		<component base="cap" yOffset="715"/>
		<contour>
			<point x="0" y="3" type="line"/>
			<point x="0" y="718" type="line"/>
			<point x="5" y="718" type="line"/>
			<point x="5" y="3" type="line"/>
		</contour>
	</outline>
</glyph>
<glyph name="_73" format="2">
	<unicode hex="0149"/>
	<advance width="4"/>
	<outline>
		<component base="cap"/>
		<component base="cap" yOffset="726"/>
		<contour>
			<point x="0" y="2" type="line"/>
			<point x="0" y="728" type="line"/>
			<point x="4" y="728" type="line"/>
			<point x="4" y="2" type="line"/>
		</contour>
	</outline>
</glyph>
<glyph name="_74" format="2">
	<unicode hex="014A"/>
	<unicode hex="004C"/>
	<advance width="1"/>
	<outline>
		<component base="cap"/>
		<component base="cap" yOffset="739"/>
		<contour>
			<point x="0" y="1" type="line"/>
			<point x="0" y="740" type="line"/>
			<point x="1" y="740" type="line"/>
			<point x="1" y="1" type="line"/>
		</contour>
	</outline>
</glyph>
<glyph name="_76" format="2">
	<unicode hex="014C"/>
	<unicode hex="004D"/>
	<advance width="4"/>
	<outline>
		<component base="cap"/>
		<component base="cap" yOffset="756"/>
		<contour>
			<point x="0" y="2" type="line"/>
			<point x="0" y="758" type="line"/>
			<point x="4" y="758" type="line"/>
			<point x="4" y="2" type="line"/>
		</contour>
	</outline>
</glyph>
<glyph name="_77" format="2">
	<unicode hex="014D"/>
	<advance width="4"/>
	<outline>
		<component base="cap"/>
		<component base="cap" yOffset="766"/>
		<contour>
			<point x="0" y="2" type="line"/>
			<point x="0" y="768" type="line"/>
			<point x="4" y="768" type="line"/>
			<point x="4" y="2" type="line"/>
		</contour>
	</outline>
</glyph>
<glyph name="_78" format="2">
	<unicode hex="014E"/>
	<unicode hex="004E"/>
	<advance width="4"/>
	<outline>
		<component base="cap"/>
		<component base="cap" yOffset="776"/>
		<contour>
			<point x="0" y="2" type="line"/>
			<point x="0" y="778" type="line"/>
			<point x="4" y="778" type="line"/>
			<point x="4" y="2" type="line"/>
		</contour>
	</outline>
</glyph>
<glyph name="_79" format="2">
	<unicode hex="014F"/>
	<advance width="5"/>
	<outline>
		<component base="cap"/>
		<component base="cap" yOffset="785"/>
		<contour>
			<point x="0" y="3" type="line"/>
			<point x="0" y="788" type="line"/>
			<point x="5" y="788" type="line"/>
			<point x="5" y="3" type="line"/>
		</contour>
	</outline>
</glyph>
<glyph name="_81" format="2">
	<unicode hex="0151"/>
	<advance width="4"/>
	<outline>
		<component base="cap"/>
		<component base="cap" yOffset="806"/>
		<contour>
			<point x="0" y="2" type="line"/>
			<point x="0" y="808" type="line"/>
			<point x="4" y="808" type="line"/>
			<point x="4" y="2" type="line"/>
		</contour>
	</outline>
</glyph>
<glyph name="_84" format="2">
	<unicode hex="0154"/>
	<unicode hex="0051"/>
	<advance width="4"/>
	<outline>
		<component base="cap"/>
		<component base="cap" yOffset="836"/>
		<contour>
			<point x="0" y="2" type="line"/>
			<point x="0" y="838" type="line"/>
			<point x="4" y="838" type="line"/>
			<point x="4" y="2" type="line"/>
		</contour>
	</outline>
</glyph>
<glyph name="_85" format="2">
	<unicode hex="0155"/>
	<advance width="5"/>
	<outline>
		<component base="cap"/>
		<component base="cap" yOffset="845"/>
		<contour>
			<point x="0" y="3" type="line"/>
			<point x="0" y="848" type="line"/>
			<point x="5" y="848" type="line"/>
			<point x="5" y="3" type="line"/>
		</contour>
	</outline>
</glyph>
<glyph name="_86" format="2">
	<unicode hex="0156"/>
	<unicode hex="2587"/>
	<unicode hex="0052"/>
	<advance width="5"/>
	<outline>
		<component base="cap"/>
		<component base="cap" yOffset="855"/>
		<contour>
			<point x="0" y="3" type="line"/>
			<point x="0" y="858" type="line"/>
			<point x="5" y="858" type="line"/>
			<point x="5" y="3" type="line"/>
		</contour>
	</outline>
</glyph>
<glyph name="_88" format="2">
	<unicode hex="0158"/>
	<unicode hex="0053"/>
	<advance width="4"/>
	<outline>
		<component base="cap"/>
		<component base="cap" yOffset="876"/>
		<contour>
			<point x="0" y="2" type="line"/>
			<point x="0" y="878" type="line"/>
			<point x="4" y="878" type="line"/>
			<point x="4" y="2" type="line"/>
		</contour>
	</outline>
</glyph>
<glyph name="_90" format="2">
	<unicode hex="015A"/>
	<unicode hex="0039"/>
	<unicode hex="0054"/>
	<advance width="5"/>
	<outline>
		<component base="cap"/>
		<component base="cap" yOffset="895"/>
		<contour>
			<point x="0" y="3" type="line"/>
			<point x="0" y="898" type="line"/>
			<point x="5" y="898" type="line"/>
			<point x="5" y="3" type="line"/>
		</contour>
	</outline>
</glyph>
<glyph name="_91" format="2">
	<unicode hex="015B"/>
	<advance width="4"/>
	<outline>
		<component base="cap"/>
		<component base="cap" yOffset="906"/>
		<contour>
			<point x="0" y="2" type="line"/>
			<point x="0" y="908" type="line"/>
			<point x="4" y="908" type="line"/>
			<point x="4" y="2" type="line"/>
		</contour>
	</outline>
</glyph>
<glyph name="_92" format="2">
	<unicode hex="015C"/>
	<unicode hex="0055"/>
	<advance width="5"/>
	<outline>
		<component base="cap"/>
		<component base="cap" yOffset="915"/>
		<contour>
			<point x="0" y="3" type="line"/>
			<point x="0" y="918" type="line"/>
			<point x="5" y="918" type="line"/>
			<point x="5" y="3" type="line"/>
		</contour>
	</outline>
</glyph>
<glyph name="_93" format="2">
	<unicode hex="015D"/>
	<advance width="5"/>
	<outline>
		<component base="cap"/>
		<component base="cap" yOffset="925"/>
		<contour>
			<point x="0" y="3" type="line"/>
			<point x="0" y="928" type="line"/>
			<point x="5" y="928" type="line"/>
			<point x="5" y="3" type="line"/>
		</contour>
	</outline>
</glyph>
<glyph name="_94" format="2">
	<unicode hex="015E"/>
	<unicode hex="0056"/>
	<advance width="5"/>
	<outline>
		<component base="cap"/>
		<component base="cap" yOffset="935"/>
		<contour>
			<point x="0" y="3" type="line"/>
			<point x="0" y="938" type="line"/>
			<point x="5" y="938" type="line"/>
			<point x="5" y="3" type="line"/>
		</contour>
	</outline>
</glyph>
<glyph name="_95" format="2">
	<unicode hex="015F"/>
	<advance width="5"/>
	<outline>
		<component base="cap"/>
		<component base="cap" yOffset="945"/>
		<contour>
			<point x="0" y="3" type="line"/>
			<point x="0" y="948" type="line"/>
			<point x="5" y="948" type="line"/>
			<point x="5" y="3" type="line"/>
		</contour>
	</outline>
</glyph>
<glyph name="_97" format="2">
	<unicode hex="0161"/>
	<advance width="4"/>
	<outline>
		<component base="cap"/>
		<component base="cap" yOffset="966"/>
		<contour>
			<point x="0" y="2" type="line"/>
			<point x="0" y="968" type="line"/>
			<point x="4" y="968" type="line"/>
			<point x="4" y="2" type="line"/>
		</contour>
	</outline>
</glyph>
<glyph name="_98" format="2">
	<unicode hex="0162"/>
	<unicode hex="0058"/>
	<advance width="5"/>
	<outline>
		<component base="cap"/>
		<component base="cap" yOffset="975"/>
		<contour>
			<point x="0" y="3" type="line"/>
			<point x="0" y="978" type="line"/>
			<point x="5" y="978" type="line"/>
			<point x="5" y="3" type="line"/>
		</contour>
	</outline>
</glyph>
<glyph name="_99" format="2">
	<unicode hex="0163"/>
	<unicode hex="0059"/>
	<advance width="4"/>
	<outline>
		<component base="cap"/>
		<component base="cap" yOffset="986"/>
		<contour>
			<point x="0" y="2" type="line"/>
			<point x="0" y="988" type="line"/>
			<point x="4" y="988" type="line"/>
			<point x="4" y="2" type="line"/>
		</contour>
	</outline>
</glyph>
<glyph name="_100" format="2">
	<unicode hex="0164"/>
	<unicode hex="007C"/>
	<unicode hex="2588"/>
	<unicode hex="005A"/>
	<advance width="5"/>
	<outline>
		<component base="cap"/>
		<component base="cap" yOffset="995"/>
		<contour>
			<point x="0" y="3" type="line"/>
			<point x="0" y="998" type="line"/>
			<point x="5" y="998" type="line"/>
			<point x="5" y="3" type="line"/>
		</contour>
	</outline>
</glyph>
<glyph name="_101" format="2">
	<unicode hex="0165"/>
	<advance width="4"/>
	<outline>
		<component base="cap"/>
		<component base="cap" yOffset="1006"/>
		<contour>
			<point x="0" y="2" type="line"/>
			<point x="0" y="1008" type="line"/>
			<point x="4" y="1008" type="line"/>
			<point x="4" y="2" type="line"/>
		</contour>
	</outline>
</glyph>
<glyph name="_102" format="2">
	<unicode hex="0166"/>
	<advance width="4"/>
	<outline>
		<component base="cap"/>
		<component base="cap" yOffset="1016"/>
		<contour>
			<point x="0" y="2" type="line"/>
			<point x="0" y="1018" type="line"/>
			<point x="4" y="1018" type="line"/>
			<point x="4" y="2" type="line"/>
		</contour>
	</outline>
</glyph>
<glyph name="_103" format="2">
	<unicode hex="0167"/>
	<advance width="5"/>
	<outline>
		<component base="cap"/>
		<component base="cap" yOffset="1025"/>
		<contour>
			<point x="0" y="3" type="line"/>
			<point x="0" y="1028" type="line"/>
			<point x="5" y="1028" type="line"/>
			<point x="5" y="3" type="line"/>
		</contour>
	</outline>
</glyph>
<glyph name="_105" format="2">
	<unicode hex="0169"/>
	<advance width="1"/>
	<outline>
		<component base="cap"/>
		<component base="cap" yOffset="1049"/>
		<contour>
			<point x="0" y="1" type="line"/>
			<point x="0" y="1050" type="line"/>
			<point x="1" y="1050" type="line"/>
			<point x="1" y="1" type="line"/>
		</contour>
	</outline>
</glyph>
<glyph name="_106" format="2">
	<unicode hex="016A"/>
	<advance width="5"/>
	<outline>
		<component base="cap"/>
		<component base="cap" yOffset="1055"/>
		<contour>
			<point x="0" y="3" type="line"/>
			<point x="0" y="1058" type="line"/>
			<point x="5" y="1058" type="line"/>
			<point x="5" y="3" type="line"/>
		</contour>
	</outline>
</glyph>
<glyph name="_107" format="2">
	<unicode hex="016B"/>
	<advance width="5"/>
	<outline>
		<component base="cap"/>
		<component base="cap" yOffset="1065"/>
		<contour>
			<point x="0" y="3" type="line"/>
			<point x="0" y="1068" type="line"/>
			<point x="5" y="1068" type="line"/>
			<point x="5" y="3" type="line"/>
		</contour>
	</outline>
</glyph>
<glyph name="_108" format="2">
	<unicode hex="016C"/>
	<advance width="1"/>
	<outline>
		<component base="cap"/>
		<component base="cap" yOffset="1079"/>
		<contour>
			<point x="0" y="1" type="line"/>
			<point x="0" y="1080" type="line"/>
			<point x="1" y="1080" type="line"/>
			<point x="1" y="1" type="line"/>
		</contour>
	</outline>
</glyph>
<glyph name="_109" format="2">
	<unicode hex="016D"/>
	<advance width="4"/>
	<outline>
		<component base="cap"/>
		<component base="cap" yOffset="1086"/>
		<contour>
			<point x="0" y="2" type="line"/>
			<point x="0" y="1088" type="line"/>
			<point x="4" y="1088" type="line"/>
			<point x="4" y="2" type="line"/>
		</contour>
	</outline>
</glyph>
<glyph name="_110" format="2">
	<unicode hex="016E"/>
	<advance width="1"/>
	<outline>
		<component base="cap"/>
		<component base="cap" yOffset="1099"/>
		<contour>
			<point x="0" y="1" type="line"/>
			<point x="0" y="1100" type="line"/>
			<point x="1" y="1100" type="line"/>
			<point x="1" y="1" type="line"/>
		</contour>
	</outline>
</glyph>
<glyph name="_111" format="2">
	<unicode hex="016F"/>
	<advance width="5"/>
	<outline>
		<component base="cap"/>
		<component base="cap" yOffset="1105"/>
		<contour>
			<point x="0" y="3" type="line"/>
			<point x="0" y="1108" type="line"/>
			<point x="5" y="1108" type="line"/>
			<point x="5" y="3" type="line"/>
		</contour>
	</outline>
</glyph>
<glyph name="_112" format="2">
	<unicode hex="0170"/>
	<advance width="4"/>
	<outline>
		<component base="cap"/>
		<component base="cap" yOffset="1116"/>
		<contour>
			<point x="0" y="2" type="line"/>
			<point x="0" y="1118" type="line"/>
			<point x="4" y="1118" type="line"/>
			<point x="4" y="2" type="line"/>
		</contour>
	</outline>
</glyph>
<glyph name="_113" format="2">
	<unicode hex="0171"/>
	<advance width="4"/>
	<outline>
		<component base="cap"/>
		<component base="cap" yOffset="1126"/>
		<contour>
			<point x="0" y="2" type="line"/>
			<point x="0" y="1128" type="line"/>
			<point x="4" y="1128" type="line"/>
			<point x="4" y="2" type="line"/>
		</contour>
	</outline>
</glyph>
<glyph name="_114" format="2">
	<unicode hex="0172"/>
	<advance width="4"/>
	<outline>
		<component base="cap"/>
		<component base="cap" yOffset="1136"/>
		<contour>
			<point x="0" y="2" type="line"/>
			<point x="0" y="1138" type="line"/>
			<point x="4" y="1138" type="line"/>
			<point x="4" y="2" type="line"/>
		</contour>
	</outline>
</glyph>
<glyph name="_115" format="2">
	<unicode hex="0173"/>
	<advance width="4"/>
	<outline>
		<component base="cap"/>
		<component base="cap" yOffset="1146"/>
		<contour>
			<point x="0" y="2" type="line"/>
			<point x="0" y="1148" type="line"/>
			<point x="4" y="1148" type="line"/>
			<point x="4" y="2" type="line"/>
		</contour>
	</outline>
</glyph>
<glyph name="_116" format="2">
	<unicode hex="0174"/>
	<advance width="1"/>
	<outline>
		<component base="cap"/>
		<component base="cap" yOffset="1159"/>
		<contour>
			<point x="0" y="1" type="line"/>
			<point x="0" y="1160" type="line"/>
			<point x="1" y="1160" type="line"/>
			<point x="1" y="1" type="line"/>
		</contour>
	</outline>
</glyph>
<glyph name="_117" format="2">
	<unicode hex="0175"/>
	<advance width="5"/>
	<outline>
		<component base="cap"/>
		<component base="cap" yOffset="1165"/>
		<contour>
			<point x="0" y="3" type="line"/>
			<point x="0" y="1168" type="line"/>
			<point x="5" y="1168" type="line"/>
			<point x="5" y="3" type="line"/>
		</contour>
	</outline>
</glyph>
<glyph name="_118" format="2">
	<unicode hex="0176"/>
	<advance width="4"/>
	<outline>
		<component base="cap"/>
		<component base="cap" yOffset="1176"/>
		<contour>
			<point x="0" y="2" type="line"/>
			<point x="0" y="1178" type="line"/>
			<point x="4" y="1178" type="line"/>
			<point x="4" y="2" type="line"/>
		</contour>
	</outline>
</glyph>
<glyph name="_119" format="2">
	<unicode hex="0177"/>
	<advance width="4"/>
	<outline>
		<component base="cap"/>
		<component base="cap" yOffset="1186"/>
		<contour>
			<point x="0" y="2" type="line"/>
			<point x="0" y="1188" type="line"/>
			<point x="4" y="1188" type="line"/>
			<point x="4" y="2" type="line"/>
		</contour>
	</outline>
</glyph>
<glyph name="_121" format="2">
	<unicode hex="0179"/>
	<advance width="5"/>
	<outline>
		<component base="cap"/>
		<component base="cap" yOffset="1205"/>
		<contour>
			<point x="0" y="3" type="line"/>
			<point x="0" y="1208" type="line"/>
			<point x="5" y="1208" type="line"/>
			<point x="5" y="3" type="line"/>
		</contour>
	</outline>
</glyph>
<glyph name="_123" format="2">
	<unicode hex="017B"/>
	<advance width="5"/>
	<outline>
		<component base="cap"/>
		<component base="cap" yOffset="1225"/>
		<contour>
			<point x="0" y="3" type="line"/>
			<point x="0" y="1228" type="line"/>
			<point x="5" y="1228" type="line"/>
			<point x="5" y="3" type="line"/>
		</contour>
	</outline>
</glyph>
<glyph name="_124" format="2">
	<unicode hex="017C"/>
	<advance width="4"/>
	<outline>
		<component base="cap"/>
		<component base="cap" yOffset="1236"/>
		<contour>
			<point x="0" y="2" type="line"/>
			<point x="0" y="1238" type="line"/>
			<point x="4" y="1238" type="line"/>
			<point x="4" y="2" type="line"/>
		</contour>
	</outline>
</glyph>
<glyph name="_125" format="2">
	<unicode hex="017D"/>
	<advance width="4"/>
	<outline>
		<component base="cap"/>
		<component base="cap" yOffset="1246"/>
		<contour>
			<point x="0" y="2" type="line"/>
			<point x="0" y="1248" type="line"/>
			<point x="4" y="1248" type="line"/>
			<point x="4" y="2" type="line"/>
		</contour>
	</outline>
</glyph>
<glyph name="_126" format="2">
	<unicode hex="017E"/>
	<advance width="5"/>
	<outline>
		<component base="cap"/>
		<component base="cap" yOffset="1255"/>
		<contour>
			<point x="0" y="3" type="line"/>
			<point x="0" y="1258" type="line"/>
			<point x="5" y="1258" type="line"/>
			<point x="5" y="3" type="line"/>
		</contour>
	</outline>
</glyph>
<glyph name="_127" format="2">
	<unicode hex="017F"/>
	<advance width="5"/>
	<outline>
		<component base="cap"/>
		<component base="cap" yOffset="1265"/>
		<contour>
			<point x="0" y="3" type="line"/>
			<point x="0" y="1268" type="line"/>
			<point x="5" y="1268" type="line"/>
			<point x="5" y="3" type="line"/>
		</contour>
	</outline>
</glyph>
<glyph name="_1.clip" format="2">
	<advance width="5"/>
	<outline>
		<contour>
			<point x="0" y="7.75"/>
			<point x="2.25" y="10"/>
			<point x="5" y="10" type="curve" smooth="yes"/>
			<point x="0" y="10" type="line"/>
			<point x="2.75" y="10"/>
			<point x="5" y="7.75"/>
			<point x="5" y="5" type="curve" smooth="yes"/>
			<point x="5" y="5" type="line"/>
			<point x="5" y="2.25"/>
			<point x="2.75" y="0"/>
			<point x="0" y="0" type="curve" smooth="yes"/>
			<point x="5" y="0" type="line"/>
			<point x="2.25" y="0"/>
			<point x="0" y="2.25"/>
			<point x="0" y="5" type="curve" smooth="yes"/>
			<point x="0" y="5" type="line"/>
		</contour>
	</outline>
</glyph>
<glyph name="_10.clip" format="2">
	<advance width="1"/>
	<outline>
		<contour>
			<point x="0" y="77.5"/>
			<point x="22.5" y="100"/>
			<point x="50" y="100" type="curve" smooth="yes"/>
			<point x="-49" y="100" type="line"/>
			<point x="-21.5" y="100"/>
			<point x="1" y="77.5"/>
			<point x="1" y="50" type="curve" smooth="yes"/>
			<point x="1" y="50" type="line"/>
			<point x="1" y="22.5"/>
			<point x="-21.5" y="0"/>
			<point x="-49" y="0" type="curve" smooth="yes"/>
			<point x="50" y="0" type="line"/>
			<point x="22.5" y="0"/>
			<point x="0" y="22.5"/>
			<point x="0" y="50" type="curve" smooth="yes"/>
			<point x="0" y="50" type="line"/>
		</contour>
	</outline>
</glyph>
<glyph name="_12.clip" format="2">
	<advance width="5"/>
	<outline>
		<contour>
			<point x="0" y="93"/>
			<point x="26" y="120"/>
			<point x="60" y="120" type="curve" smooth="yes"/>
			<point x="-55" y="120" type="line"/>
			<point x="-21" y="120"/>
			<point x="5" y="93"/>
			<point x="5" y="60" type="curve" smooth="yes"/>
			<point x="5" y="60" type="line"/>
			<point x="5" y="26"/>
			<point x="-21" y="0"/>
			<point x="-55" y="0" type="curve" smooth="yes"/>
			<point x="60" y="0" type="line"/>
			<point x="26" y="0"/>
			<point x="0" y="26"/>
			<point x="0" y="60" type="curve" smooth="yes"/>
			<point x="0" y="60" type="line"/>
		</contour>
	</outline>
</glyph>
<glyph name="_13.clip" format="2">
	<advance width="5"/>
	<outline>
		<contour>
			<point x="0" y="100.75"/>
			<point x="29.25" y="130"/>
			<point x="65" y="130" type="curve" smooth="yes"/>
			<point x="-60" y="130" type="line"/>
			<point x="-24.25" y="130"/>
			<point x="5" y="100.75"/>
			<point x="5" y="65" type="curve" smooth="yes"/>
			<point x="5" y="65" type="line"/>
			<point x="5" y="29.25"/>
			<point x="-24.25" y="0"/>
			<point x="-60" y="0" type="curve" smooth="yes"/>
			<point x="65" y="0" type="line"/>
			<point x="29.25" y="0"/>
			<point x="0" y="29.25"/>
			<point x="0" y="65" type="curve" smooth="yes"/>
			<point x="0" y="65" type="line"/>
		</contour>
	</outline>
</glyph>
<glyph name="_15.clip" format="2">
	<advance width="5"/>
	<outline>
		<contour>
			<point x="0" y="116.25"/>
			<point x="33.75" y="150"/>
			<point x="75" y="150" type="curve" smooth="yes"/>
			<point x="-70" y="150" type="line"/>
			<point x="-28.75" y="150"/>
			<point x="5" y="116.25"/>
			<point x="5" y="75" type="curve" smooth="yes"/>
			<point x="5" y="75" type="line"/>
			<point x="5" y="33.75"/>
			<point x="-28.75" y="0"/>
			<point x="-70" y="0" type="curve" smooth="yes"/>
			<point x="75" y="0" type="line"/>
			<point x="33.75" y="0"/>
			<point x="0" y="33.75"/>
			<point x="0" y="75" type="curve" smooth="yes"/>
			<point x="0" y="75" type="line"/>
		</contour>
	</outline>
</glyph>
<glyph name="_16.clip" format="2">
	<advance width="4"/>
	<outline>
		<contour>
			<point x="0" y="124"/>
			<point x="36" y="160"/>
			<point x="80" y="160" type="curve" smooth="yes"/>
			<point x="-76" y="160" type="line"/>
			<point x="-32" y="160"/>
			<point x="4" y="124"/>
			<point x="4" y="80" type="curve" smooth="yes"/>
			<point x="4" y="80" type="line"/>
			<point x="4" y="36"/>
			<point x="-32" y="0"/>
			<point x="-76" y="0" type="curve" smooth="yes"/>
			<point x="80" y="0" type="line"/>
			<point x="36" y="0"/>
			<point x="0" y="36"/>
			<point x="0" y="80" type="curve" smooth="yes"/>
			<point x="0" y="80" type="line"/>
		</contour>
	</outline>
</glyph>
<glyph name="_17.clip" format="2">
	<advance width="4"/>
	<outline>
		<contour>
			<point x="0" y="131.75"/>
			<point x="38.25" y="170"/>
			<point x="85" y="170" type="curve" smooth="yes"/>
			<point x="-81" y="170" type="line"/>
			<point x="-34.25" y="170"/>
			<point x="4" y="131.75"/>
			<point x="4" y="85" type="curve" smooth="yes"/>
			<point x="4" y="85" type="line"/>
			<point x="4" y="38.25"/>
			<point x="-34.25" y="0"/>
			<point x="-81" y="0" type="curve" smooth="yes"/>
			<point x="85" y="0" type="line"/>
			<point x="38.25" y="0"/>
			<point x="0" y="38.25"/>
			<point x="0" y="85" type="curve" smooth="yes"/>
			<point x="0" y="85" type="line"/>
		</contour>
	</outline>
</glyph>
<glyph name="_18.clip" format="2">
	<advance width="5"/>
	<outline>
		<contour>
			<point x="0" y="139.5"/>
			<point x="40.5" y="180"/>
			<point x="90" y="180" type="curve" smooth="yes"/>
			<point x="-85" y="180" type="line"/>
			<point x="-35.5" y="180"/>
			<point x="5" y="139.5"/>
			<point x="5" y="90" type="curve" smooth="yes"/>
			<point x="5" y="90" type="line"/>
			<point x="5" y="40.5"/>
			<point x="-35.5" y="0"/>
			<point x="-85" y="0" type="curve" smooth="yes"/>
			<point x="90" y="0" type="line"/>
			<point x="40.5" y="0"/>
			<point x="0" y="40.5"/>
			<point x="0" y="90" type="curve" smooth="yes"/>
			<point x="0" y="90" type="line"/>
		</contour>
	</outline>
</glyph>
<glyph name="_19.clip" format="2">
	<advance width="4"/>
	<outline>
		<contour>
			<point x="0" y="147.25"/>
			<point x="42.75" y="190"/>
			<point x="95" y="190" type="curve" smooth="yes"/>
			<point x="-91" y="190" type="line"/>
			<point x="-38.75" y="190"/>
			<point x="4" y="147.25"/>
			<point x="4" y="95" type="curve" smooth="yes"/>
			<point x="4" y="95" type="line"/>
			<point x="4" y="42.75"/>
			<point x="-38.75" y="0"/>
			<point x="-91" y="0" type="curve" smooth="yes"/>
			<point x="95" y="0" type="line"/>
			<point x="42.75" y="0"/>
			<point x="0" y="42.75"/>
			<point x="0" y="95" type="curve" smooth="yes"/>
			<point x="0" y="95" type="line"/>
		</contour>
	</outline>
</glyph>
<glyph name="_2.clip" format="2">
	<advance width="4"/>
	<outline>
		<contour>
			<point x="0" y="15.5"/>
			<point x="4.5" y="20"/>
			<point x="10" y="20" type="curve" smooth="yes"/>
			<point x="-6" y="20" type="line"/>
			<point x="-0.5" y="20"/>
			<point x="4" y="15.5"/>
			<point x="4" y="10" type="curve" smooth="yes"/>
			<point x="4" y="10" type="line"/>
			<point x="4" y="4.5"/>
			<point x="-0.5" y="0"/>
			<point x="-6" y="0" type="curve" smooth="yes"/>
			<point x="10" y="0" type="line"/>
			<point x="4.5" y="0"/>
			<point x="0" y="4.5"/>
			<point x="0" y="10" type="curve" smooth="yes"/>
			<point x="0" y="10" type="line"/>
		</contour>
	</outline>
</glyph>
<glyph name="_20.clip" format="2">
	<advance width="5"/>
	<outline>
		<contour>
			<point x="0" y="155"/>
			<point x="44" y="200"/>
			<point x="100" y="200" type="curve" smooth="yes"/>
			<point x="-95" y="200" type="line"/>
			<point x="-39" y="200"/>
			<point x="5" y="155"/>
			<point x="5" y="100" type="curve" smooth="yes"/>
			<point x="5" y="100" type="line"/>
			<point x="5" y="44"/>
			<point x="-39" y="0"/>
			<point x="-95" y="0" type="curve" smooth="yes"/>
			<point x="100" y="0" type="line"/>
			<point x="44" y="0"/>
			<point x="0" y="44"/>
			<point x="0" y="100" type="curve" smooth="yes"/>
			<point x="0" y="100" type="line"/>
		</contour>
	</outline>
</glyph>
<glyph name="_21.clip" format="2">
	<advance width="5"/>
	<outline>
		<contour>
			<point x="0" y="162.75"/>
			<point x="47.25" y="210"/>
			<point x="105" y="210" type="curve" smooth="yes"/>
			<point x="-100" y="210" type="line"/>
			<point x="-42.25" y="210"/>
			<point x="5" y="162.75"/>
			<point x="5" y="105" type="curve" smooth="yes"/>
			<point x="5" y="105" type="line"/>
			<point x="5" y="47.25"/>
			<point x="-42.25" y="0"/>
			<point x="-100" y="0" type="curve" smooth="yes"/>
			<point x="105" y="0" type="line"/>
			<point x="47.25" y="0"/>
			<point x="0" y="47.25"/>
			<point x="0" y="105" type="curve" smooth="yes"/>
			<point x="0" y="105" type="line"/>
		</contour>
	</outline>
</glyph>
<glyph name="_24.clip" format="2">
	<advance width="5"/>
	<outline>
		<contour>
			<point x="0" y="186"/>
			<point x="53" y="240"/>
			<point x="120" y="240" type="curve" smooth="yes"/>
			<point x="-115" y="240" type="line"/>
			<point x="-48" y="240"/>
			<point x="5" y="186"/>
			<point x="5" y="120" type="curve" smooth="yes"/>
			<point x="5" y="120" type="line"/>
			<point x="5" y="53"/>
			<point x="-48" y="0"/>
			<point x="-115" y="0" type="curve" smooth="yes"/>
			<point x="120" y="0" type="line"/>
			<point x="53" y="0"/>
			<point x="0" y="53"/>
			<point x="0" y="120" type="curve" smooth="yes"/>
			<point x="0" y="120" type="line"/>
		</contour>
	</outline>
</glyph>
<glyph name="_26.clip" format="2">
	<advance width="4"/>
	<outline>
		<contour>
			<point x="0" y="201.5"/>
			<point x="58.5" y="260"/>
			<point x="130" y="260" type="curve" smooth="yes"/>
			<point x="-126" y="260" type="line"/>
			<point x="-54.5" y="260"/>
			<point x="4" y="201.5"/>
			<point x="4" y="130" type="curve" smooth="yes"/>
			<point x="4" y="130" type="line"/>
			<point x="4" y="58.5"/>
			<point x="-54.5" y="0"/>
			<point x="-126" y="0" type="curve" smooth="yes"/>
			<point x="130" y="0" type="line"/>
			<point x="58.5" y="0"/>
			<point x="0" y="58.5"/>
			<point x="0" y="130" type="curve" smooth="yes"/>
			<point x="0" y="130" type="line"/>
		</contour>
	</outline>
</glyph>
<glyph name="_27.clip" format="2">
	<advance width="4"/>
	<outline>
		<contour>
			<point x="0" y="209.25"/>
			<point x="60.75" y="270"/>
			<point x="135" y="270" type="curve" smooth="yes"/>
			<point x="-131" y="270" type="line"/>
			<point x="-56.75" y="270"/>
			<point x="4" y="209.25"/>
			<point x="4" y="135" type="curve" smooth="yes"/>
			<point x="4" y="135" type="line"/>
			<point x="4" y="60.75"/>
			<point x="-56.75" y="0"/>
			<point x="-131" y="0" type="curve" smooth="yes"/>
			<point x="135" y="0" type="line"/>
			<point x="60.75" y="0"/>
			<point x="0" y="60.75"/>
			<point x="0" y="135" type="curve" smooth="yes"/>
			<point x="0" y="135" type="line"/>
		</contour>
	</outline>
</glyph>
<glyph name="_29.clip" format="2">
	<advance width="4"/>
	<outline>
		<contour>
			<point x="0" y="224.75"/>
			<point x="65.25" y="290"/>
			<point x="145" y="290" type="curve" smooth="yes"/>
			<point x="-141" y="290" type="line"/>
			<point x="-61.25" y="290"/>
			<point x="4" y="224.75"/>
			<point x="4" y="145" type="curve" smooth="yes"/>
			<point x="4" y="145" type="line"/>
			<point x="4" y="65.25"/>
			<point x="-61.25" y="0"/>
			<point x="-141" y="0" type="curve" smooth="yes"/>
			<point x="145" y="0" type="line"/>
			<point x="65.25" y="0"/>
			<point x="0" y="65.25"/>
			<point x="0" y="145" type="curve" smooth="yes"/>
			<point x="0" y="145" type="line"/>
		</contour>
	</outline>
</glyph>
<glyph name="_3.clip" format="2">
	<advance width="4"/>
	<outline>
		<contour>
			<point x="0" y="23.25"/>
			<point x="6.75" y="30"/>
			<point x="15" y="30" type="curve" smooth="yes"/>
			<point x="-11" y="30" type="line"/>
			<point x="-2.75" y="30"/>
			<point x="4" y="23.25"/>
			<point x="4" y="15" type="curve" smooth="yes"/>
			<point x="4" y="15" type="line"/>
			<point x="4" y="6.75"/>
			<point x="-2.75" y="0"/>
			<point x="-11" y="0" type="curve" smooth="yes"/>
			<point x="15" y="0" type="line"/>
			<point x="6.75" y="0"/>
			<point x="0" y="6.75"/>
			<point x="0" y="15" type="curve" smooth="yes"/>
			<point x="0" y="15" type="line"/>
		</contour>
	</outline>
</glyph>
<glyph name="_31.clip" format="2">
	<advance width="4"/>
	<outline>
		<contour>
			<point x="0" y="240.25"/>
			<point x="69.75" y="310"/>
			<point x="155" y="310" type="curve" smooth="yes"/>
			<point x="-151" y="310" type="line"/>
			<point x="-65.75" y="310"/>
			<point x="4" y="240.25"/>
			<point x="4" y="155" type="curve" smooth="yes"/>
			<point x="4" y="155" type="line"/>
			<point x="4" y="69.75"/>
			<point x="-65.75" y="0"/>
			<point x="-151" y="0" type="curve" smooth="yes"/>
			<point x="155" y="0" type="line"/>
			<point x="69.75" y="0"/>
			<point x="0" y="69.75"/>
			<point x="0" y="155" type="curve" smooth="yes"/>
			<point x="0" y="155" type="line"/>
		</contour>
	</outline>
</glyph>
<glyph name="_32.clip" format="2">
	<advance width="4"/>
	<outline>
		<contour>
			<point x="0" y="248"/>
			<point x="72" y="320"/>
			<point x="160" y="320" type="curve" smooth="yes"/>
			<point x="-156" y="320" type="line"/>
			<point x="-68" y="320"/>
			<point x="4" y="248"/>
			<point x="4" y="160" type="curve" smooth="yes"/>
			<point x="4" y="160" type="line"/>
			<point x="4" y="72"/>
			<point x="-68" y="0"/>
			<point x="-156" y="0" type="curve" smooth="yes"/>
			<point x="160" y="0" type="line"/>
			<point x="72" y="0"/>
			<point x="0" y="72"/>
			<point x="0" y="160" type="curve" smooth="yes"/>
			<point x="0" y="160" type="line"/>
		</contour>
	</outline>
</glyph>
<glyph name="_35.clip" format="2">
	<advance width="4"/>
	<outline>
		<contour>
			<point x="0" y="271.25"/>
			<point x="78.75" y="350"/>
			<point x="175" y="350" type="curve" smooth="yes"/>
			<point x="-171" y="350" type="line"/>
			<point x="-74.75" y="350"/>
			<point x="4" y="271.25"/>
			<point x="4" y="175" type="curve" smooth="yes"/>
			<point x="4" y="175" type="line"/>
			<point x="4" y="78.75"/>
			<point x="-74.75" y="0"/>
			<point x="-171" y="0" type="curve" smooth="yes"/>
			<point x="175" y="0" type="line"/>
			<point x="78.75" y="0"/>
			<point x="0" y="78.75"/>
			<point x="0" y="175" type="curve" smooth="yes"/>
			<point x="0" y="175" type="line"/>
		</contour>
	</outline>
</glyph>
<glyph name="_37.clip" format="2">
	<advance width="4"/>
	<outline>
		<contour>
			<point x="0" y="286.75"/>
			<point x="83.25" y="370"/>
			<point x="185" y="370" type="curve" smooth="yes"/>
			<point x="-181" y="370" type="line"/>
			<point x="-79.25" y="370"/>
			<point x="4" y="286.75"/>
			<point x="4" y="185" type="curve" smooth="yes"/>
			<point x="4" y="185" type="line"/>
			<point x="4" y="83.25"/>
			<point x="-79.25" y="0"/>
			<point x="-181" y="0" type="curve" smooth="yes"/>
			<point x="185" y="0" type="line"/>
			<point x="83.25" y="0"/>
			<point x="0" y="83.25"/>
			<point x="0" y="185" type="curve" smooth="yes"/>
			<point x="0" y="185" type="line"/>
		</contour>
	</outline>
</glyph>
<glyph name="_39.clip" format="2">
	<advance width="4"/>
	<outline>
		<contour>
			<point x="0" y="302.25"/>
			<point x="87.75" y="390"/>
			<point x="195" y="390" type="curve" smooth="yes"/>
			<point x="-191" y="390" type="line"/>
			<point x="-83.75" y="390"/>
			<point x="4" y="302.25"/>
			<point x="4" y="195" type="curve" smooth="yes"/>
			<point x="4" y="195" type="line"/>
			<point x="4" y="87.75"/>
			<point x="-83.75" y="0"/>
			<point x="-191" y="0" type="curve" smooth="yes"/>
			<point x="195" y="0" type="line"/>
			<point x="87.75" y="0"/>
			<point x="0" y="87.75"/>
			<point x="0" y="195" type="curve" smooth="yes"/>
			<point x="0" y="195" type="line"/>
		</contour>
	</outline>
</glyph>
<glyph name="_4.clip" format="2">
	<advance width="5"/>
	<outline>
		<contour>
			<point x="0" y="31"/>
			<point x="9" y="40"/>
			<point x="20" y="40" type="curve" smooth="yes"/>
			<point x="-15" y="40" type="line"/>
			<point x="-4" y="40"/>
			<point x="5" y="31"/>
			<point x="5" y="20" type="curve" smooth="yes"/>
			<point x="5" y="20" type="line"/>
			<point x="5" y="9"/>
			<point x="-4" y="0"/>
			<point x="-15" y="0" type="curve" smooth="yes"/>
			<point x="20" y="0" type="line"/>
			<point x="9" y="0"/>
			<point x="0" y="9"/>
			<point x="0" y="20" type="curve" smooth="yes"/>
			<point x="0" y="20" type="line"/>
		</contour>
	</outline>
</glyph>
<glyph name="_40.clip" format="2">
	<advance width="4"/>
	<outline>
		<contour>
			<point x="0" y="310"/>
			<point x="89" y="400"/>
			<point x="200" y="400" type="curve" smooth="yes"/>
			<point x="-196" y="400" type="line"/>
			<point x="-85" y="400"/>
			<point x="4" y="310"/>
			<point x="4" y="200" type="curve" smooth="yes"/>
			<point x="4" y="200" type="line"/>
			<point x="4" y="89"/>
			<point x="-85" y="0"/>
			<point x="-196" y="0" type="curve" smooth="yes"/>
			<point x="200" y="0" type="line"/>
			<point x="89" y="0"/>
			<point x="0" y="89"/>
			<point x="0" y="200" type="curve" smooth="yes"/>
			<point x="0" y="200" type="line"/>
		</contour>
	</outline>
</glyph>
<glyph name="_5.clip" format="2">
	<advance width="4"/>
	<outline>
		<contour>
			<point x="0" y="38.75"/>
			<point x="11.25" y="50"/>
			<point x="25" y="50" type="curve" smooth="yes"/>
			<point x="-21" y="50" type="line"/>
			<point x="-7.25" y="50"/>
			<point x="4" y="38.75"/>
			<point x="4" y="25" type="curve" smooth="yes"/>
			<point x="4" y="25" type="line"/>
			<point x="4" y="11.25"/>
			<point x="-7.25" y="0"/>
			<point x="-21" y="0" type="curve" smooth="yes"/>
			<point x="25" y="0" type="line"/>
			<point x="11.25" y="0"/>
			<point x="0" y="11.25"/>
			<point x="0" y="25" type="curve" smooth="yes"/>
			<point x="0" y="25" type="line"/>
		</contour>
	</outline>
</glyph>
<glyph name="_8.clip" format="2">
	<advance width="4"/>
	<outline>
		<contour>
			<point x="0" y="62"/>
			<point x="18" y="80"/>
			<point x="40" y="80" type="curve" smooth="yes"/>
			<point x="-36" y="80" type="line"/>
			<point x="-14" y="80"/>
			<point x="4" y="62"/>
			<point x="4" y="40" type="curve" smooth="yes"/>
			<point x="4" y="40" type="line"/>
			<point x="4" y="18"/>
			<point x="-14" y="0"/>
			<point x="-36" y="0" type="curve" smooth="yes"/>
			<point x="40" y="0" type="line"/>
			<point x="18" y="0"/>
			<point x="0" y="18"/>
			<point x="0" y="40" type="curve" smooth="yes"/>
			<point x="0" y="40" type="line"/>
		</contour>
	</outline>
</glyph>
<glyph name="_9.clip" format="2">
	<advance width="4"/>
	<outline>
		<contour>
			<point x="0" y="69.75"/>
			<point x="20.25" y="90"/>
			<point x="45" y="90" type="curve" smooth="yes"/>
			<point x="-41" y="90" type="line"/>
			<point x="-16.25" y="90"/>
			<point x="4" y="69.75"/>
			<point x="4" y="45" type="curve" smooth="yes"/>
			<point x="4" y="45" type="line"/>
			<point x="4" y="20.25"/>
			<point x="-16.25" y="0"/>
			<point x="-41" y="0" type="curve" smooth="yes"/>
			<point x="45" y="0" type="line"/>
			<point x="20.25" y="0"/>
			<point x="0" y="20.25"/>
			<point x="0" y="45" type="curve" smooth="yes"/>
			<point x="0" y="45" type="line"/>
		</contour>
	</outline>
</glyph>
<glyph name=".notdef" format="2">
	<advance width="1"/>
	<outline>
		<contour>
			<point x="0" y="0" type="line"/>
			<point x="0" y="10" type="line"/>
			<point x="1" y="10" type="line"/>
			<point x="1" y="0" type="line"/>
		</contour>
	</outline>
</glyph>
<glyph name="cap" format="2">
	<outline>
		<contour>
			<point x="0" y="3.1"/>
			<point x="0.9" y="4"/>
			<point x="2" y="4" type="curve" smooth="yes"/>
			<point x="2" y="4" type="line"/>
			<point x="3.1" y="4"/>
			<point x="4" y="3.1"/>
			<point x="4" y="2" type="curve" smooth="yes"/>
			<point x="4" y="2" type="line"/>
			<point x="4" y="0.9"/>
			<point x="3.1" y="0"/>
			<point x="2" y="0" type="curve" smooth="yes"/>
			<point x="2" y="0" type="line"/>
			<point x="0.9" y="0"/>
			<point x="0" y="0.9"/>
			<point x="0" y="2" type="curve" smooth="yes"/>
			<point x="0" y="2" type="line"/>
		</contour>
	</outline>
</glyph>
